<?xml version="1.0" encoding="UTF-8"?>
<svg  width="30px" height="40px" viewBox="0 0 46 64" version="1.1" xmlns="http://www.w3.org/2000/svg" xmlns:xlink="http://www.w3.org/1999/xlink">
    <!-- Generator: Sketch 41.2 (35397) - http://www.bohemiancoding.com/sketch -->
    <title>train marker - not started</title>
    <desc>Created with Sketch.</desc>
    <defs>
        <path d="M20.7128906,0.62890625 C26.3639605,0.62890625 31.1946414,2.6113083 35.2050781,6.57617188 C39.2155148,10.5410354 41.2207031,15.3489301 41.2207031,21 C41.2207031,23.825535 40.51433,27.0839659 39.1015625,30.7753906 C37.688795,34.4668153 35.9798277,37.8847499 33.9746094,41.0292969 C31.969391,44.1738438 29.9642027,47.1360538 27.9589844,49.9160156 C25.953766,52.6959774 24.267585,54.9062418 22.9003906,56.546875 L20.7128906,58.8710938 C20.1660129,58.324216 19.4368535,57.5039117 18.5253906,56.4101562 C17.6139277,55.3164008 15.9961054,53.1972813 13.671875,50.0527344 C11.3476446,46.9081874 9.27409766,43.8548325 7.45117188,40.8925781 C5.62824609,37.9303237 3.9876375,34.5807479 2.52929688,30.84375 C1.07095625,27.1067521 0.341796875,23.825535 0.341796875,21 C0.341796875,15.3489301 2.32419893,10.5410354 6.2890625,6.57617188 C10.2539261,2.6113083 15.0618207,0.62890625 20.7128906,0.62890625 Z" id="path-1"></path>
        <mask id="mask-2" maskContentUnits="userSpaceOnUse" maskUnits="objectBoundingBox" x="-2" y="-2" width="44.8789062" height="62.2421875">
            <rect x="-1.65820312" y="-1.37109375" width="44.8789062" height="62.2421875" fill="white"></rect>
            <use xlink:href="#path-1" fill="black"></use>
        </mask>
    </defs>
    <g id="Screens" stroke="none" stroke-width="1" fill="none" fill-rule="evenodd">
        <g id="Dashboard---Map-View-with-Mega-Menu---Zoom-with-Progress" transform="translate(-397.000000, -340.000000)">
            <g id="train-marker---not-started" transform="translate(399.000000, 342.000000)">
                <g id="">
                    <use fill="#EB5B58" fill-rule="evenodd" xlink:href="#path-1"></use>
                    <use stroke="#FFFFFF" mask="url(#mask-2)" stroke-width="4" xlink:href="#path-1"></use>
                </g>
                <path d="M21.40625,10.2695312 C22.9492265,10.2695312 24.2578071,10.3281244 25.3320312,10.4453125 C26.4062554,10.5625006 27.4414013,10.7871077 28.4375,11.1191406 C29.4335987,11.4511735 30.1757788,11.958981 30.6640625,12.6425781 C31.1523462,13.3261753 31.3964844,14.1953072 31.3964844,15.25 L31.3964844,27.1445312 C31.3964844,28.3554748 30.9765667,29.3808552 30.1367188,30.2207031 C29.2968708,31.0605511 28.2714904,31.4804688 27.0605469,31.4804688 L28.9355469,33.3554688 L28.9355469,34 L13.9355469,34 L13.9355469,33.3554688 L15.8105469,31.4804688 C14.5996033,31.4804688 13.5644574,31.0605511 12.7050781,30.2207031 C11.8456988,29.3808552 11.4160156,28.3554748 11.4160156,27.1445312 L11.4160156,15.25 C11.4160156,14.1953072 11.6601538,13.3261753 12.1484375,12.6425781 C12.6367212,11.958981 13.3789013,11.4511735 14.375,11.1191406 C15.3710987,10.7871077 16.4062446,10.5625006 17.4804688,10.4453125 C18.5546929,10.3281244 19.8632735,10.2695312 21.40625,10.2695312 Z M15.78125,29.0195312 C16.3085964,29.0195312 16.7578106,28.8339862 17.1289062,28.4628906 C17.5000019,28.091795 17.6855469,27.6425808 17.6855469,27.1152344 C17.6855469,26.587888 17.5000019,26.1484393 17.1289062,25.796875 C16.7578106,25.4453107 16.3085964,25.2695312 15.78125,25.2695312 C15.2539036,25.2695312 14.8144549,25.4453107 14.4628906,25.796875 C14.1113264,26.1484393 13.9355469,26.587888 13.9355469,27.1152344 C13.9355469,27.6425808 14.1113264,28.091795 14.4628906,28.4628906 C14.8144549,28.8339862 15.2539036,29.0195312 15.78125,29.0195312 Z M20.1464844,21.5195312 L20.1464844,15.25 L13.9355469,15.25 L13.9355469,21.5195312 L20.1464844,21.5195312 Z M27.03125,29.0195312 C27.5585964,29.0195312 28.0078106,28.8339862 28.3789062,28.4628906 C28.7500019,28.091795 28.9355469,27.6425808 28.9355469,27.1152344 C28.9355469,26.587888 28.7500019,26.1484393 28.3789062,25.796875 C28.0078106,25.4453107 27.5585964,25.2695312 27.03125,25.2695312 C26.5039036,25.2695312 26.0644549,25.4453107 25.7128906,25.796875 C25.3613264,26.1484393 25.1855469,26.587888 25.1855469,27.1152344 C25.1855469,27.6425808 25.3613264,28.091795 25.7128906,28.4628906 C26.0644549,28.8339862 26.5039036,29.0195312 27.03125,29.0195312 Z M28.9355469,21.5195312 L28.9355469,15.25 L22.6660156,15.25 L22.6660156,21.5195312 L28.9355469,21.5195312 Z" id="" fill="#FFFFFF"></path>
            </g>
        </g>
    </g>
</svg>